<!DOCTYPE svg PUBLIC "-//W3C//DTD SVG 1.1//EN" "http://www.w3.org/Graphics/SVG/1.1/DTD/svg11.dtd">
<!-- Uploaded to: SVG Repo, www.svgrepo.com, Transformed by: SVG Repo Mixer Tools -->
<svg fill="#d4af37" height="800px" width="800px" version="1.1" id="Layer_1" xmlns="http://www.w3.org/2000/svg" xmlns:xlink="http://www.w3.org/1999/xlink" viewBox="0 0 512 512" xml:space="preserve">
<g id="SVGRepo_bgCarrier" stroke-width="0"/>
<g id="SVGRepo_tracerCarrier" stroke-linecap="round" stroke-linejoin="round"/>
<g id="SVGRepo_iconCarrier"> <g> <g> <path d="M488.035,419.013l-88.647-132.217l13.511-5.173c25.952-9.937,36.084-41.253,20.959-64.501l-10.355-15.915 c-2.72-4.179-2.72-9.581,0-13.76l10.355-15.916c15.156-23.293,4.942-54.584-20.959-64.501l-19.239-7.366 c-3.742-1.432-6.292-4.943-6.497-8.944l-1.06-20.575c-1.432-27.748-28.089-47.068-54.869-39.863l-19.895,5.348 c-3.866,1.042-7.997-0.301-10.516-3.416l-12.95-16.021c-17.47-21.61-50.385-21.569-67.82,0l-12.952,16.022 c-2.518,3.115-6.641,4.455-10.513,3.416l-19.895-5.349c-26.844-7.212-53.441,12.168-54.869,39.864l-1.061,20.574 c-0.206,4.001-2.757,7.511-6.497,8.944l-19.239,7.366c-25.952,9.936-36.084,41.255-20.958,64.501l11.234,17.268 c2.185,3.358,2.185,7.698,0,11.056l-11.234,17.267c-15.157,23.294-4.942,54.585,20.958,64.501l16.696,6.392L23.96,419.018 c-7.431,11.094,0.53,26.048,13.903,26.048h56.594l28.843,57.686c5.829,11.658,22.224,12.488,29.161,1.38l76.873-123.097 c15.543,10.665,36.786,10.259,51.995-2.042l78.214,125.144c6.936,11.097,23.327,10.277,29.157-1.386l28.843-57.686h56.594 C487.491,445.066,495.482,430.123,488.035,419.013z M139.885,461.085l-20.119-40.237c-2.834-5.669-8.628-9.251-14.967-9.251 H69.216l54.735-81.703c7.083,21.62,30.03,34.585,52.742,28.476l19.895-5.349c3.339-0.896,6.861-0.014,9.383,2.241L139.885,461.085 z M274.798,335.4l-12.95,16.02c-4.063,5.025-11.703,5.026-15.766,0l-12.95-16.02c-8.398-10.39-20.954-16.192-33.928-16.192 c-3.763,0-7.562,0.489-11.304,1.495l-19.895,5.348c-6.244,1.68-12.422-2.818-12.755-9.266l-1.061-20.573 c-0.884-17.133-11.839-32.307-27.956-38.477l-19.239-7.366c-6.034-2.312-8.397-9.58-4.872-14.996l11.234-17.267 c9.399-14.446,9.399-33.115,0-47.56l-11.234-17.268c-3.524-5.414-1.164-12.683,4.871-14.993l19.239-7.366 c16.096-6.161,27.069-21.266,27.956-38.476l1.061-20.574c0.332-6.454,6.515-10.942,12.755-9.266l19.895,5.349 c16.645,4.475,34.398-1.294,45.231-14.696l12.952-16.022c4.061-5.024,11.702-5.024,15.765,0l12.95,16.021 c10.835,13.402,28.585,19.172,45.232,14.696l19.895-5.348c6.235-1.679,12.421,2.812,12.755,9.266l1.06,20.574 c0.887,17.212,11.86,32.315,27.956,38.477l19.239,7.366c6.032,2.309,8.396,9.577,4.872,14.993l-10.355,15.916 c-9.933,15.268-9.933,34.999,0,50.266l10.355,15.915c3.523,5.415,1.162,12.683-4.872,14.994l-19.239,7.366 c-7.334,2.808-13.587,7.487-18.325,13.362c-0.349,0.404-0.675,0.822-0.979,1.253c-5.08,6.792-8.196,15.045-8.65,23.863 l-1.06,20.573c-0.332,6.45-6.513,10.945-12.755,9.267l-19.895-5.349C303.385,316.23,285.633,321.999,274.798,335.4z M407.201,411.597v0.001c-6.339,0-12.133,3.581-14.967,9.251l-20.124,40.249l-67.268-107.629c2.023-0.837,4.296-1.037,6.497-0.447 l19.895,5.349c24.234,6.516,48.653-8.699,53.907-32.724l57.629,85.951H407.201z"/> </g> </g> <g> <g> <path d="M253.963,93.921c-55.363,0-100.404,45.041-100.404,100.404c0,55.363,45.041,100.404,100.404,100.404 s100.404-45.041,100.404-100.404C354.367,138.962,309.326,93.921,253.963,93.921z M253.963,261.262 c-36.909,0-66.936-30.028-66.936-66.936c0-36.909,30.028-66.936,66.936-66.936c36.909,0,66.936,30.028,66.936,66.936 C320.899,231.234,290.872,261.262,253.963,261.262z"/> </g> </g> </g>
</svg>