<?xml version="1.0" encoding="UTF-8"?>
<!-- Uploaded to: SVG Repo, www.svgrepo.com, Generator: SVG Repo Mixer Tools -->
<svg width="800px" height="800px" viewBox="0 -6 16 16" version="1.1" xmlns="http://www.w3.org/2000/svg" xmlns:xlink="http://www.w3.org/1999/xlink">
    <title>navigation / 14 - navigation, aligned, dots, more, horizontal, three dots, option icon</title>
    <g id="Free-Icons" stroke="none" stroke-width="1" fill="none" fill-rule="evenodd">
        <g transform="translate(-1119.000000, -756.000000)" fill="#000000" fill-rule="nonzero" id="Group">
            <g transform="translate(1115.000000, 746.000000)" id="Shape">
                <path d="M6,10 C4.8954305,10 4,10.8954305 4,12 C4,13.1045695 4.8954305,14 6,14 C7.1045695,14 8,13.1045695 8,12 C8,10.8954305 7.1045695,10 6,10 Z">
</path>
                <path d="M12,10 C10.8954305,10 10,10.8954305 10,12 C10,13.1045695 10.8954305,14 12,14 C13.1045695,14 14,13.1045695 14,12 C14,10.8954305 13.1045695,10 12,10 Z">
</path>
                <path d="M18,10 C16.8954305,10 16,10.8954305 16,12 C16,13.1045695 16.8954305,14 18,14 C19.1045695,14 20,13.1045695 20,12 C20,10.8954305 19.1045695,10 18,10 Z">
</path>
            </g>
        </g>
    </g>
</svg>