<!DOCTYPE svg PUBLIC "-//W3C//DTD SVG 1.1//EN" "http://www.w3.org/Graphics/SVG/1.1/DTD/svg11.dtd">
<!-- Uploaded to: SVG Repo, www.svgrepo.com, Transformed by: SVG Repo Mixer Tools -->
<svg version="1.1" id="_x32_" xmlns="http://www.w3.org/2000/svg" xmlns:xlink="http://www.w3.org/1999/xlink" width="800px" height="800px" viewBox="0 0 512 512" xml:space="preserve" fill="#ffffff">
<g id="SVGRepo_bgCarrier" stroke-width="0"/>
<g id="SVGRepo_tracerCarrier" stroke-linecap="round" stroke-linejoin="round"/>
<g id="SVGRepo_iconCarrier"> <style type="text/css">  .st0{fill:#ffffff;}  </style> <g> <path class="st0" d="M156.29,453.129l-55.063-82.172c2.25-5.984,2.031-12.875-1.234-18.953 c-5.984-11.188-19.906-15.375-31.078-9.375c-11.188,5.984-15.375,19.891-9.391,31.078c4.031,7.5,11.641,11.844,19.578,12.078 l55.078,82.188c-2.266,5.984-2.031,12.875,1.234,18.953c5.984,11.172,19.906,15.375,31.078,9.375 c11.172-5.984,15.375-19.906,9.375-31.078C171.852,457.707,164.243,453.363,156.29,453.129z"/> <path class="st0" d="M6.852,447.066c-7.359,5.281-9.063,15.531-3.781,22.906l21.594,30.141c5.281,7.375,15.531,9.078,22.906,3.797 l58.469-38.641l-37.594-57.438L6.852,447.066z"/> <path class="st0" d="M470.336,172.582C529.07,80.957,463.43,5.02,463.43,5.02s-1.703,5.891-6.281,19.047 c-40.172,94.484-118.672,178.797-189.078,240.719c20.328,17.328,39.672,32.625,56.828,45.563 C384.383,265.27,443.664,214.191,470.336,172.582z"/> <path class="st0" d="M126.774,371.582l35.844,50.328c0,0,33.813-20.875,79.531-52.141c-17.516-12.219-36.188-25.625-55.063-39.734 C151.118,356.613,126.774,371.582,126.774,371.582z"/> <path class="st0" d="M432.898,385.785c7.938-0.234,15.547-4.578,19.578-12.078c5.984-11.188,1.781-25.094-9.391-31.078 c-11.172-6-25.094-1.813-31.078,9.375c-3.266,6.078-3.484,12.969-1.234,18.953l-55.078,82.172 c-7.938,0.234-15.547,4.578-19.578,12.094c-5.984,11.172-1.781,25.094,9.391,31.078c11.172,6,25.094,1.797,31.078-9.375 c3.266-6.078,3.484-12.969,1.234-18.953L432.898,385.785z"/> <path class="st0" d="M505.133,447.066l-61.594-39.234l-37.578,57.438l58.469,38.641c7.375,5.281,17.625,3.578,22.906-3.797 l21.594-30.141C514.211,462.598,512.508,452.348,505.133,447.066z"/> <path class="st0" d="M349.383,421.91l14.156-19.875C202.165,292.91,128.024,227.738,91.961,184.082 c-12.297-14.906-20.156-27.344-25.438-38.125c-7.047-14.375-9.438-25.828-11.75-35.5c-0.719-2.938,1.094-5.906,4.047-6.609 c2.938-0.703,5.906,1.109,6.609,4.063c2.375,9.906,4.484,20,10.953,33.219c6.453,13.219,17.359,29.609,37.469,51.25 c39.172,42.219,113.234,104.172,256.046,200.719l15.313-21.516c0,0-247.218-152.016-330.359-347.516 C50.258,10.91,48.555,5.02,48.555,5.02s-65.625,75.938-6.891,167.563C104.618,270.801,349.383,421.91,349.383,421.91z"/> </g> </g>
</svg>