<!DOCTYPE svg PUBLIC "-//W3C//DTD SVG 1.1//EN" "http://www.w3.org/Graphics/SVG/1.1/DTD/svg11.dtd">
<!-- Uploaded to: SVG Repo, www.svgrepo.com, Transformed by: SVG Repo Mixer Tools -->
<svg width="800px" height="800px" viewBox="0 0 1024 1024" class="icon" version="1.1" xmlns="http://www.w3.org/2000/svg" fill="#000000">
<g id="SVGRepo_bgCarrier" stroke-width="0"/>
<g id="SVGRepo_tracerCarrier" stroke-linecap="round" stroke-linejoin="round"/>
<g id="SVGRepo_iconCarrier">
<path d="M352 128a32 32 0 0 0 12.16-2.56 37.12 37.12 0 0 0 10.56-6.72 37.12 37.12 0 0 0 6.72-10.56A32 32 0 0 0 384 96a33.6 33.6 0 0 0-9.28-22.72 32 32 0 0 0-45.44 0A32 32 0 0 0 320 96a32 32 0 0 0 32 32zM480 128h128a32 32 0 0 0 0-64h-128a32 32 0 0 0 0 64z" fill="#080808"/>
<path d="M960 32h-32a32 32 0 0 0-22.72 9.28L832 115.2V96a32 32 0 0 0-32-32h-64a32 32 0 0 0 0 64h32c-8 271.68-117.44 480-256 480-143.68 0-256-224-256-512a32 32 0 0 0-64 0v19.2L118.72 41.28A32 32 0 0 0 96 32H64a32 32 0 0 0-32 32v256a32 32 0 0 0 9.28 22.72l96 96A32 32 0 0 0 160 448h96c46.4 111.04 114.88 188.48 196.16 214.4l-115.2 137.6H224a32 32 0 0 0-32 32v128a32 32 0 0 0 32 32h576a32 32 0 0 0 32-32v-128a32 32 0 0 0-32-32h-112.96l-114.88-137.6c81.28-25.6 149.76-103.04 196.16-214.4h96a32 32 0 0 0 22.72-9.28l96-96A32 32 0 0 0 992 320V64a32 32 0 0 0-32-32zM173.12 384L96 306.88V109.12L198.08 211.2A909.76 909.76 0 0 0 232.32 384zM672 864h96v64H256v-64h96a32 32 0 0 0 24.64-11.52L512 689.92l135.36 162.56A32 32 0 0 0 672 864z m256-557.12L850.88 384h-59.2a909.76 909.76 0 0 0 34.56-172.8L928 109.12z" fill="#080808"/>
<path d="M384 224a32 32 0 0 0 0 64h256a32 32 0 0 0 0-64zM448 384a32 32 0 0 0 0 64h128a32 32 0 0 0 0-64z" fill="#080808"/>
</g>
</svg>