<?xml version="1.0" encoding="iso-8859-1"?>
<!-- Uploaded to: SVG Repo, www.svgrepo.com, Generator: SVG Repo Mixer Tools -->
<!DOCTYPE svg PUBLIC "-//W3C//DTD SVG 1.1//EN" "http://www.w3.org/Graphics/SVG/1.1/DTD/svg11.dtd">
<svg fill="#000000" height="800px" width="800px" version="1.1" id="Capa_1" xmlns="http://www.w3.org/2000/svg" xmlns:xlink="http://www.w3.org/1999/xlink" 
	 viewBox="0 0 476.868 476.868" xml:space="preserve">
<g>
	<path d="M363.826,297.259l-57.068-17.001c-15.155,18.033-34.251,30.442-55.849,30.442c-21.566,0-40.693-12.41-55.832-30.442
		l-57.068,17.001c-11.057,3.307-18.627,13.441-18.627,24.999v21.669c0,72.668,58.897,131.536,131.527,131.536
		c72.66,0,131.543-58.867,131.543-131.536v-21.669C382.452,310.7,374.882,300.566,363.826,297.259z"/>
	<path d="M250.204,1.407c-124.974,0-226.661,101.68-226.661,226.662c0,22.584,3.659,44.463,10.104,65.623l-19.267-3.167
		c-5.35-0.882-10.668,1.831-13.075,6.686c-2.425,4.864-1.407,10.736,2.534,14.482l56.41,53.824
		c5.051,4.816,12.401,6.357,18.971,3.972c6.554-2.393,11.197-8.297,11.965-15.233l8.632-77.5c0.61-5.395-2.376-10.557-7.365-12.722
		c-4.975-2.167-10.792-0.837-14.327,3.283l-14.075,16.4c-5.411-17.962-8.477-36.511-8.477-55.646
		c0-107.316,87.315-194.632,194.632-194.632c107.318,0,194.635,87.316,194.635,194.632c0,31.725-7.492,62.089-22.287,90.24
		c-4.113,7.828-1.095,17.509,6.741,21.622c2.376,1.25,4.926,1.838,7.427,1.838c5.756,0,11.324-3.113,14.201-8.571
		c17.219-32.789,25.947-68.157,25.947-105.128C476.868,103.086,375.181,1.407,250.204,1.407z"/>
	<path d="M166.24,227.916c5.051,6.361,11.483,10.189,17.627,10.075c13.872,31.816,38.329,59.137,66.267,59.137
		c27.936,0,52.394-27.32,66.266-59.137c6.145,0.114,12.576-3.714,17.627-10.075c2.672-3.358,4.987-7.347,6.589-11.952
		c3.003-8.618,2.958-17.161,0.592-23.719c-1.858-5.14-5.115-9.089-9.681-10.693c-0.746,0.243-1.488,0.51-2.297,0.573
		c-0.248,0.019-0.495,0.025-0.745,0.025c-1.482,0-2.854-0.451-4.146-1.075c-2.457-1.189-4.453-3.275-5.266-6.01
		c-0.197-0.656-5.174-16.113-34.559-16.113c-2.825,0-5.814,0.147-8.963,0.433c0,0-3.072,0.273-7.81,0.273
		c-15.675,0-36.787-2.709-48.343-15.596c-2.444-2.729-4.326-5.782-5.628-9.109c-10.867,6.901-26.488,19.941-32.498,40.429
		c-0.765,2.589-2.571,4.543-4.809,5.745c-1.394,0.75-2.913,1.271-4.562,1.271c-0.381,0-0.763-0.02-1.15-0.07
		c-0.789-0.095-1.494-0.4-2.214-0.674c-4.452,1.653-7.646,5.527-9.476,10.591c-2.368,6.558-2.412,15.101,0.59,23.719
		C161.255,220.569,163.569,224.558,166.24,227.916z"/>
	<path d="M221.528,119.796c-2.969,27.122,31.118,30.092,46.213,30.092c4.235,0,6.977-0.234,6.977-0.234
		c3.479-0.325,6.743-0.471,9.797-0.471c38.221,0,43.984,23.325,43.984,23.325l2.365-17.563
		c4.983-36.912-20.697-70.948-57.553-76.298c-2.149-0.311-4.306-0.464-6.449-0.464c-12.314,0-24.195,5.064-32.746,14.185
		l-0.648,0.693c-5.654-2.583-11.691-3.854-17.701-3.854c-8.65,0-17.244,2.632-24.555,7.785
		c-13.908,9.802-21.816,26.054-20.957,43.043l1.641,32.593C183.01,134.769,221.528,119.796,221.528,119.796z"/>
</g>
</svg>